<svg id="Layer_1" data-name="Layer 1" xmlns="http://www.w3.org/2000/svg" viewBox="0 0 232.42 281.4"><defs><style>.cls-1,.cls-2,.cls-3,.cls-4,.cls-5,.cls-6{fill-rule:evenodd;}.cls-1{opacity:0.24;}.cls-2{fill:#5aacd8;}.cls-3{fill:#64bbe4;}.cls-4{fill:#fff;}.cls-5{fill:#003c6a;}.cls-6{fill:#f4fafb;}</style></defs><title>Gloo A</title><path class="cls-1" d="M119.64,183.21c37.82,0,68.48,1.5,68.48,3.35s-30.66,3.35-68.48,3.35-68.48-1.5-68.48-3.35,30.66-3.35,68.48-3.35"/><path class="cls-2" d="M81.52,187.18c18.34,0,21.83-12,34-12.06s17.39,12.06,35.08,12.06c22.9,0,39.4-39.38,45.07-72.33,2.54,3.56,5,7.08,7.14,10.36,10.64,16.36,20.3,14.54,25.63,10.69s6.65-16.12-4-28.46C218.87,101,207.68,92.7,197.58,87c-2.82-40.17-38.17-66.84-81.37-66.84A93.3,93.3,0,0,0,73,30.25a43.87,43.87,0,0,0-9.5-5.31c-8.19-3.41-8.89-.94-9.48-8-.57-6.88-4.37-13.1-12.17-15.6-13-4.18-26.8,1.74-30.8,13.21S12.91,38.24,26,42.18c19.56,5.89,22-14.56,29.66-10.06,3.85,1.6,6.58,4.42,3.11,7.69l-.62.54-.09.07-.12.12A67,67,0,0,0,34.84,87C24.74,92.71,13.56,101,8,107.44-2.62,119.78-1.29,132,4,135.9s15,5.67,25.63-10.69c2-3,4.22-6.25,6.56-9.53,5.41,40.28,24.17,71.5,45.3,71.5"/><path class="cls-3" d="M119.72,22.17a72.73,72.73,0,0,1,72.73,72.73c0,73.17-145,76.87-145-10.56,0-40.17,32.11-62.17,72.27-62.17"/><path class="cls-4" d="M201.91,98.16c-1.36,2.63,5,5.95,10.75,13.34s10.45,8.72,11.81,6.09-1.22-7.78-7.13-12.61-14.06-9.45-15.42-6.82"/><path class="cls-4" d="M10,125a3.92,3.92,0,0,1,1.28,4.81c-.74,1.82-2.52,2.62-4,1.78A3.92,3.92,0,0,1,6,126.73c.74-1.82,2.52-2.62,4-1.78M31.07,97.52c2.73,1.29-6.14,2.81-14.81,17.76-3.09,5.34-3.83,8.28-6.55,7.61-1.16-.29-3.83-1.9.62-9.29S28.05,96.09,31.07,97.52Z"/><path class="cls-5" d="M116.26,103.9c12.33,0,16.87-4.33,22.23.45s-4.8,20.57-22.33,20.57-27.38-15.62-22.33-20.57,10.11-.45,22.44-.45"/><path class="cls-2" d="M128,119.54a22.86,22.86,0,0,1-24-.18c.27-3.74,7-5.75,12-3.28,5.26-2.48,11.87-.37,12,3.46"/><path class="cls-4" d="M116.26,105.32c8.08,0,12.52-1.74,16.18-1.74,0,.06,0,.13,0,.19a4.92,4.92,0,0,1-4.72,5.1,4.43,4.43,0,0,1-2.32-.66,5.35,5.35,0,0,1-9.09.56,5.35,5.35,0,0,1-9.13-.66,4.44,4.44,0,0,1-2.47.75,4.92,4.92,0,0,1-4.72-5.1c0-.08,0-.16,0-.25,3.65.08,8.19,1.79,16.27,1.79"/><path class="cls-6" d="M181.82,66.42c1.59-.27,3.34,1,3.92,2.91s-.25,3.62-1.84,3.89-3.34-1-3.92-2.91.25-3.62,1.84-3.89M117.41,44.09C103.2,47,98.78,33.3,116.75,29c22.51-5.43,54.46,9.24,64,29.44,2.55,5.38-1.44,7.4-5.8,2C162.94,45.48,141.25,39.21,117.41,44.09Z"/><path class="cls-5" d="M159.19,83.22a12.94,12.94,0,1,1-12.94,12.94,12.94,12.94,0,0,1,12.94-12.94"/><path class="cls-6" d="M165.06,87.37A3.61,3.61,0,1,1,161.45,91a3.61,3.61,0,0,1,3.61-3.61"/><path class="cls-5" d="M73.23,83.22A12.94,12.94,0,1,1,60.29,96.16,12.94,12.94,0,0,1,73.23,83.22"/><path class="cls-6" d="M79.09,87.37A3.61,3.61,0,1,1,75.48,91a3.61,3.61,0,0,1,3.61-3.61"/><path class="cls-4" d="M37.89,3.79a8.86,8.86,0,0,1,8.86,8.86c0,8.91-17.66,9.36-17.66-1.29,0-4.89,3.91-7.57,8.8-7.57"/><path class="cls-2" d="M122.68,258a6.86,6.86,0,0,0,4.27,4,9.36,9.36,0,0,0,6.64-.63,9.6,9.6,0,0,0,5-4.31,6.68,6.68,0,0,0,.12-5.81,7,7,0,0,0-4.27-4,9,9,0,0,0-6.56.59,9.54,9.54,0,0,0-5.1,4.35,6.61,6.61,0,0,0-.12,5.77m48.75,0a6.86,6.86,0,0,0,4.27,4,9.36,9.36,0,0,0,6.64-.63,9.6,9.6,0,0,0,5-4.31,6.69,6.69,0,0,0,.12-5.81,7,7,0,0,0-4.27-4,9,9,0,0,0-6.56.59,9.54,9.54,0,0,0-5.1,4.35A6.61,6.61,0,0,0,171.44,258ZM91.6,215.22l3.91-.31c7.09-.56,8.12,0,8,7.21-.19,16.66-.32,28.92-.51,45.58-.06,5.42,0,10.16-4.77,10.57l-5.46.47c-7.5.64-6.49-1.12-6.56-8.46l-.4-46.18C85.79,216.7,84.44,215.79,91.6,215.22ZM61.49,235.4a11.78,11.78,0,0,0-5.41-1.22A16.35,16.35,0,0,0,50,235.44,19.86,19.86,0,0,0,44.22,239a18.75,18.75,0,0,0-4.31,5.61,16.23,16.23,0,0,0-1.7,7.51,12.17,12.17,0,0,0,1.22,6.2,8,8,0,0,0,3.32,3.36,8.73,8.73,0,0,0,4.46.91c8.87-.43,18.6-9.35,7.75-7.29-5.28,1-8.74,1.34-8.12-3.49.64-5,.69-7.69,8.42-8.66L73,240.9c9-1.13,11.23,1,10.3,8.48a27.6,27.6,0,0,1-3.16,8.89,59.52,59.52,0,0,1-4.23,7.23,55.26,55.26,0,0,1-3.67,4.86q-1.46,1.66-1.62,1.82a28.22,28.22,0,0,1-6.91,5A37.21,37.21,0,0,1,55,280.4a37.7,37.7,0,0,1-9.64,1,29.93,29.93,0,0,1-9.48-1.74,26.24,26.24,0,0,1-8.34-4.94,24.31,24.31,0,0,1-6.2-8.61,34,34,0,0,1-3.08-11.81,36.73,36.73,0,0,1,5.25-21.77,41.76,41.76,0,0,1,7.11-8.81A43.56,43.56,0,0,1,39.87,217a39.84,39.84,0,0,1,10.82-4q.16,0,1.7-.2a26.38,26.38,0,0,1,4.46,0A31.81,31.81,0,0,1,63.42,214a37,37,0,0,1,7.9,3.32c10.72,5.86,7.28,8.52,4,12.94a40.53,40.53,0,0,1-4,4.76C69,237.26,65.78,237.58,61.49,235.4Zm131.11-7.29a19,19,0,0,0-5.33,3.26l-.86-.2a29.18,29.18,0,0,0-10.08-.32,27.74,27.74,0,0,0-9.6,3,22.78,22.78,0,0,0-11.38,14.3l-.06.21a24.22,24.22,0,0,0-2.75-6.72,22.18,22.18,0,0,0-6.32-6.83,23.39,23.39,0,0,0-8.57-3.67,29.18,29.18,0,0,0-10.07-.32,27.74,27.74,0,0,0-9.6,3,22.78,22.78,0,0,0-11.38,14.3,24.52,24.52,0,0,0-.51,10.15,24.24,24.24,0,0,0,3.24,9.6,22.34,22.34,0,0,0,6.32,6.8,23.38,23.38,0,0,0,8.61,3.67,29.41,29.41,0,0,0,10.11.32,27.76,27.76,0,0,0,9.6-3,23.33,23.33,0,0,0,7.19-5.93,22.84,22.84,0,0,0,4.19-8.3l0-.13a23,23,0,0,0,2.69,6.61,22.34,22.34,0,0,0,6.32,6.8,23.38,23.38,0,0,0,8.61,3.67,29.41,29.41,0,0,0,10.11.32,27.75,27.75,0,0,0,9.6-3,23.33,23.33,0,0,0,7.19-5.93,22.85,22.85,0,0,0,4.19-8.3,24.51,24.51,0,0,0,.51-10.15,25.5,25.5,0,0,0-3.32-9.64,22.18,22.18,0,0,0-6.32-6.83h0c-2-1.53-.73-2.87,1-3.61,3.35-2,4.39,6.95,12.91,4.38,5.7-1.71,8.23-7,6.49-12S207.69,216,202,217.83a7.45,7.45,0,0,0-5.3,6.79C196.47,227.7,196.16,226.62,192.6,228.11Z"/><path class="cls-4" d="M209.42,220.81a3.55,3.55,0,0,0-3.55,3.55c0,3.57,7.08,3.76,7.08-.52,0-2-1.57-3-3.53-3"/></svg>